<?xml version="1.0" encoding="UTF-8" standalone="no"?>
<!-- Created with Inkscape (http://www.inkscape.org/) -->

<svg
   xmlns:dc="http://purl.org/dc/elements/1.1/"
   xmlns:cc="http://creativecommons.org/ns#"
   xmlns:rdf="http://www.w3.org/1999/02/22-rdf-syntax-ns#"
   xmlns:svg="http://www.w3.org/2000/svg"
   xmlns="http://www.w3.org/2000/svg"
   xmlns:sodipodi="http://sodipodi.sourceforge.net/DTD/sodipodi-0.dtd"
   xmlns:inkscape="http://www.inkscape.org/namespaces/inkscape"
   width="60.678467mm"
   height="73.229317mm"
   viewBox="0 0 60.678467 73.229317"
   version="1.1"
   id="svg4568"
   inkscape:version="0.92.2 (5c3e80d, 2017-08-06)"
   sodipodi:docname="logo.svg"
   inkscape:export-filename="/home/robert-jan/Documents/V1I-Sportschool/logo.png"
   inkscape:export-xdpi="180"
   inkscape:export-ydpi="180">
  <defs
     id="defs4562" />
  <sodipodi:namedview
     id="base"
     pagecolor="#ffffff"
     bordercolor="#666666"
     borderopacity="1.0"
     inkscape:pageopacity="0.0"
     inkscape:pageshadow="2"
     inkscape:zoom="1.979899"
     inkscape:cx="168.88299"
     inkscape:cy="123.69056"
     inkscape:document-units="mm"
     inkscape:current-layer="layer1"
     showgrid="false"
     fit-margin-top="0"
     fit-margin-left="0"
     fit-margin-right="0"
     fit-margin-bottom="0"
     inkscape:window-width="1920"
     inkscape:window-height="1024"
     inkscape:window-x="0"
     inkscape:window-y="30"
     inkscape:window-maximized="1" />
  <metadata
     id="metadata4565">
    <rdf:RDF>
      <cc:Work
         rdf:about="">
        <dc:format>image/svg+xml</dc:format>
        <dc:type
           rdf:resource="http://purl.org/dc/dcmitype/StillImage" />
        <dc:title></dc:title>
      </cc:Work>
    </rdf:RDF>
  </metadata>
  <g
     inkscape:label="Layer 1"
     inkscape:groupmode="layer"
     id="layer1"
     transform="translate(-47.4362,-39.353441)">
    <g
       transform="matrix(0.26458333,0,0,0.26458333,68.90435,52.940937)"
       id="g6" />
    <g
       transform="matrix(0.26458333,0,0,0.26458333,68.90435,52.940937)"
       id="g8" />
    <g
       transform="matrix(0.26458333,0,0,0.26458333,68.90435,52.940937)"
       id="g10" />
    <g
       transform="matrix(0.26458333,0,0,0.26458333,68.90435,52.940937)"
       id="g12" />
    <g
       transform="matrix(0.26458333,0,0,0.26458333,68.90435,52.940937)"
       id="g14" />
    <g
       transform="matrix(0.26458333,0,0,0.26458333,68.90435,52.940937)"
       id="g16" />
    <g
       transform="matrix(0.26458333,0,0,0.26458333,68.90435,52.940937)"
       id="g18" />
    <g
       transform="matrix(0.26458333,0,0,0.26458333,68.90435,52.940937)"
       id="g20" />
    <g
       transform="matrix(0.26458333,0,0,0.26458333,68.90435,52.940937)"
       id="g22" />
    <g
       transform="matrix(0.26458333,0,0,0.26458333,68.90435,52.940937)"
       id="g24" />
    <g
       transform="matrix(0.26458333,0,0,0.26458333,68.90435,52.940937)"
       id="g26" />
    <g
       transform="matrix(0.26458333,0,0,0.26458333,68.90435,52.940937)"
       id="g28" />
    <g
       transform="matrix(0.26458333,0,0,0.26458333,68.90435,52.940937)"
       id="g30" />
    <g
       transform="matrix(0.26458333,0,0,0.26458333,68.90435,52.940937)"
       id="g32" />
    <g
       transform="matrix(0.26458333,0,0,0.26458333,68.90435,52.940937)"
       id="g34" />
    <flowRoot
       xml:space="preserve"
       id="flowRoot5151"
       style="font-style:normal;font-weight:normal;font-size:40px;line-height:125%;font-family:sans-serif;letter-spacing:0px;word-spacing:0px;fill:#000000;fill-opacity:1;stroke:none;stroke-width:1px;stroke-linecap:butt;stroke-linejoin:miter;stroke-opacity:1"
       transform="scale(0.26458333)"><flowRegion
         id="flowRegion5153"><rect
           id="rect5155"
           width="345.47217"
           height="86.873116"
           x="209.10158"
           y="399.25046" /></flowRegion><flowPara
         id="flowPara5157"></flowPara></flowRoot>    <g
       transform="matrix(0.26458333,0,0,0.26458333,51.810138,37.499681)"
       id="g4"
       style="stroke:#27ae60;stroke-opacity:1;fill:none">
      <path
         inkscape:connector-curvature="0"
         d="m 184.939,156.751 c -1.084,2.028 0.828,7.861 1.522,10.023 0.049,0.127 0.085,0.256 0.085,0.383 0.019,0.269 0.335,6.406 -1.796,10.4 -0.067,1.023 -0.402,3.557 -2.138,5.243 -0.889,0.847 -2.003,1.34 -3.294,1.437 -0.914,0.877 -2.674,1.724 -5.061,1.547 -0.828,0.39 -2.436,0.914 -4.768,0.335 -0.853,0.177 -2.643,0.359 -5.072,-0.469 -0.743,0.134 -2.095,0.183 -3.203,-0.719 -1.15,-0.919 -1.662,-2.515 -1.559,-4.737 -0.341,-0.194 -0.67,-0.45 -0.975,-0.791 -1.291,-1.474 -1.644,-4.001 -1.022,-7.478 0.042,-0.177 0.098,-0.348 0.183,-0.499 0.188,-0.329 4.549,-7.673 9.889,-11.047 0.426,-3.652 0.901,-9.353 0.487,-11.094 -1.419,-6.26 -2.862,-15.102 0.194,-21.909 -3.087,-1.114 -9.572,-3.635 -12.385,-6.138 -2.99,-2.686 -5.127,-4.725 -7.076,-7.063 -0.907,5.249 -5.328,13.043 -18.925,23.76 0.365,4.458 1.717,25.179 -3.002,37.126 l -2.813,-1.103 c 4.938,-12.513 2.759,-36.327 2.734,-36.571 -0.055,-0.518 0.164,-1.017 0.585,-1.34 19.826,-15.411 19.284,-23.65 18.121,-26.487 -0.293,-0.713 0.012,-1.56 0.7,-1.918 0.676,-0.366 1.54,-0.134 1.961,0.511 2.801,4.33 5.272,6.839 9.718,10.809 2.686,2.393 10.291,5.23 13.007,6.113 0.432,0.141 0.785,0.476 0.938,0.914 0.158,0.438 0.128,0.907 -0.122,1.309 -3.593,6.022 -2.112,15.047 -0.694,21.307 0.694,2.989 -0.39,11.879 -0.523,12.891 -0.061,0.486 -0.353,0.907 -0.767,1.133 -4.445,2.472 -8.482,8.805 -9.274,10.089 -0.548,3.331 0.128,4.415 0.354,4.658 0.012,0 0.036,0 0.049,0 0.438,0 0.986,0.286 1.278,0.603 0.305,0.336 0.572,0.902 0.512,1.34 -0.28,1.985 0.012,2.99 0.341,3.252 0.231,0.195 0.779,0.098 0.871,0.066 0.353,-0.115 0.688,-0.115 1.053,0.013 2.405,0.919 3.952,0.493 4.001,0.469 0.268,-0.097 0.609,-0.085 0.883,-0.024 2.07,0.609 3.154,-0.091 3.197,-0.121 0.298,-0.184 0.7,-0.299 1.065,-0.25 2.313,0.311 3.154,-0.785 3.179,-0.834 0.292,-0.391 0.779,-0.658 1.267,-0.658 0.036,0 0.128,0.013 0.183,0 0.712,0 1.267,-0.201 1.687,-0.627 0.998,-0.932 1.229,-2.838 1.229,-3.495 0,-0.269 0.073,-0.523 0.207,-0.749 1.498,-2.545 1.656,-7.069 1.596,-8.848 -1.438,-4.402 -2.801,-9.305 -1.278,-12.19 3.281,-6.192 7.678,-25.16 7.721,-25.355 2.01,-13.365 -4.153,-22.28 -8.232,-28.187 -5.931,-8.573 -17.202,-13.886 -17.317,-13.929 -0.427,-0.195 -0.749,-0.624 -0.853,-1.084 -2.722,-14.23 -15.113,-17.914 -21.647,-17.914 -0.456,0 -0.883,0.018 -1.278,0.018 -13.707,0 -29.191,-8.081 -29.855,-8.437 -0.499,-0.268 -0.815,-0.78 -0.815,-1.339 0,-10.023 1.796,-15.421 1.863,-15.646 3.629,-5.897 3.55,-8.516 3.202,-9.578 -0.255,-0.792 -0.767,-1.023 -0.828,-1.035 -0.646,-0.256 -1.102,-0.959 -0.998,-1.662 2.606,-17.428 -10.065,-20.603 -10.613,-20.722 -0.013,0 -3.38,-0.624 -5.718,-0.398 -0.11,0 -0.305,0 -0.384,0 -2.405,-0.213 -5.772,0.411 -5.797,0.411 -0.481,0.125 -13.141,3.282 -10.546,20.709 0.122,0.733 -0.335,1.452 -1.047,1.674 -0.012,0 -0.524,0.231 -0.779,1.023 -0.359,1.075 -0.438,3.693 3.032,9.262 0.225,0.542 2.016,5.928 2.016,15.963 0,0.56 -0.317,1.071 -0.816,1.339 -0.658,0.356 -16.148,8.437 -29.843,8.437 -0.42,0 -0.834,-0.037 -1.278,-0.018 -6.546,0 -18.913,3.684 -21.659,17.914 -0.085,0.46 -0.384,0.853 -0.804,1.06 -0.122,0.061 -11.016,5.581 -16.879,14.014 l -0.603,0.89 C 7.257,108.84 1.46,117.176 3.409,130.11 c 0.024,0.079 4.421,19.047 7.69,25.239 1.535,2.868 0.165,7.775 -1.267,12.185 -0.036,1.022 -0.097,5.991 1.596,8.854 0.134,0.226 0.207,0.487 0.219,0.755 0,0.646 0.219,2.539 1.218,3.489 0.432,0.414 0.98,0.627 1.693,0.627 0.079,0 0.128,0 0.188,0 0.524,0 1.011,0.256 1.279,0.7 0.012,0.013 0.816,1.103 3.142,0.792 0.372,-0.055 0.779,0.055 1.09,0.268 0.03,0 1.133,0.713 3.191,0.11 0.304,-0.092 0.621,-0.08 0.901,0.029 0.037,0 1.571,0.427 3.964,-0.48 0.365,-0.128 0.725,-0.128 1.065,-0.012 0.104,0.03 0.627,0.134 0.883,-0.062 0.317,-0.274 0.597,-1.278 0.317,-3.251 -0.061,-0.445 0.091,-0.901 0.39,-1.225 0.305,-0.359 0.743,-0.651 1.188,-0.48 -0.061,-0.019 0.134,-0.043 0.316,-0.287 0.274,-0.358 0.816,-1.491 0.311,-4.597 -0.785,-1.291 -4.859,-7.63 -9.286,-10.096 -0.408,-0.226 -0.7,-0.646 -0.761,-1.133 -0.134,-1.005 -1.218,-9.895 -0.542,-12.891 1.425,-6.254 2.917,-15.26 -0.688,-21.306 -0.231,-0.391 -0.268,-0.877 -0.116,-1.31 0.146,-0.42 0.511,-0.761 0.938,-0.907 2.716,-0.895 10.315,-3.732 13,-6.113 4.463,-3.965 6.911,-6.467 9.718,-10.784 0.426,-0.67 1.254,-0.913 1.967,-0.523 0.682,0.353 0.986,1.169 0.694,1.912 -1.145,2.831 -1.675,11.082 18.127,26.487 0.408,0.316 0.64,0.816 0.591,1.334 -0.024,0.243 -2.198,24.082 2.734,36.565 l -2.819,1.108 C 61.627,163.16 62.972,142.438 63.332,137.981 49.729,127.276 45.308,119.47 44.419,114.227 c -1.943,2.339 -4.074,4.384 -7.076,7.058 -2.826,2.515 -9.316,5.035 -12.385,6.144 3.057,6.82 1.613,15.661 0.183,21.896 -0.384,1.735 0.079,7.447 0.499,11.106 5.34,3.355 9.706,10.705 9.889,11.04 0.104,0.152 0.152,0.323 0.183,0.512 0.609,3.477 0.268,5.991 -1.022,7.459 -0.311,0.347 -0.646,0.603 -0.987,0.804 0.116,2.204 -0.396,3.806 -1.546,4.737 -1.121,0.913 -2.466,0.858 -3.221,0.706 -2.412,0.835 -4.208,0.652 -5.066,0.476 -0.73,0.177 -1.413,0.256 -1.997,0.256 -1.273,0 -2.223,-0.323 -2.771,-0.591 -2.466,0.207 -4.128,-0.664 -5.048,-1.547 -1.285,-0.109 -2.412,-0.603 -3.294,-1.443 -1.717,-1.674 -2.058,-4.201 -2.131,-5.236 -2.143,-3.994 -1.82,-10.133 -1.802,-10.4 0,-0.134 0.03,-0.256 0.073,-0.39 0.779,-2.394 2.606,-7.995 1.522,-10.011 C 4.964,150.257 0.616,131.496 0.433,130.705 -1.716,116.475 4.75,107.188 9.019,101.032 L 9.64,100.168 C 15.15,92.212 24.4,86.866 26.97,85.496 30.355,69.926 44.141,65.861 51.479,65.861 c 0.408,0 0.828,0.012 1.236,0.012 11.271,0 24.296,-6.031 27.645,-7.663 -0.122,-8.887 -1.693,-13.707 -1.699,-13.755 -3.063,-4.847 -4.177,-8.894 -3.13,-11.691 0.39,-1.022 0.974,-1.689 1.51,-2.106 C 74.672,11.258 89.95,7.58 90.108,7.537 c 0.219,-0.039 3.909,-0.736 6.656,-0.462 2.636,-0.286 6.314,0.411 6.472,0.457 0.22,0.049 15.51,3.727 13.129,23.127 0.535,0.411 1.139,1.084 1.498,2.101 1.047,2.792 -0.049,6.838 -3.258,12.002 0.036,0 -1.449,4.801 -1.559,13.451 3.343,1.638 16.379,7.663 27.645,7.663 0.408,0 0.804,-0.012 1.248,-0.012 7.325,0 21.111,4.053 24.484,19.616 2.68,1.34 12.239,6.516 17.744,14.471 4.451,6.442 11.033,15.966 8.816,30.629 -0.237,0.877 -4.573,19.638 -8.044,26.171 z m -39.001,-55.539 c 0,-0.843 -0.676,-1.522 -1.522,-1.522 -0.84,0 -1.51,0.679 -1.51,1.522 0,9.311 -8.902,16.892 -19.839,16.892 -10.924,0 -19.82,-7.581 -19.82,-16.892 v -9.514 c 0,-0.849 -0.676,-1.516 -1.516,-1.516 -0.841,0 -1.522,0.667 -1.522,1.516 v 9.502 c 0,10.997 10.266,19.93 22.858,19.93 12.599,0 22.871,-8.94 22.871,-19.918 z m -95.411,0 c 0,-0.843 -0.67,-1.522 -1.51,-1.522 -0.846,0 -1.522,0.679 -1.522,1.522 0,10.991 10.266,19.924 22.858,19.924 12.604,0 22.859,-8.945 22.859,-19.924 v -9.514 c 0,-0.849 -0.664,-1.516 -1.504,-1.516 -0.846,0 -1.516,0.667 -1.516,1.516 v 9.502 c 0,9.311 -8.903,16.903 -19.839,16.903 -10.923,0.001 -19.826,-7.581 -19.826,-16.891 z m 77.156,8.409 c 0,-1.833 -1.449,-3.324 -3.264,-3.324 -1.777,0 -3.239,1.491 -3.239,3.324 0,1.845 1.449,3.312 3.239,3.312 1.797,10e-4 3.264,-1.467 3.264,-3.312 z m -55.442,0 c 0,-1.833 -1.443,-3.324 -3.251,-3.324 -1.809,0 -3.246,1.491 -3.246,3.324 0,1.845 1.443,3.312 3.246,3.312 1.803,0 3.251,-1.467 3.251,-3.312 z m 24.43,15.181 c -12.087,0 -21.921,9.828 -21.921,21.921 v 26.208 c 0,0.828 0.676,1.504 1.51,1.504 0.84,0 1.522,-0.676 1.522,-1.504 v -26.208 c 0,-10.413 8.458,-18.87 18.876,-18.87 10.413,0 18.876,8.457 18.876,18.87 v 27.182 c 0,0.841 0.676,1.517 1.522,1.517 0.828,0 1.51,-0.676 1.51,-1.517 v -27.182 c 0.02,-12.093 -9.808,-21.921 -21.895,-21.921 z m 6.643,20.624 c 0.012,0 0.024,0 0.036,0 4.299,0 7.38,-3.051 7.502,-3.179 0.585,-0.604 0.585,-1.547 -0.012,-2.149 -0.604,-0.603 -1.56,-0.572 -2.144,0.012 -0.019,0.024 -2.339,2.277 -5.347,2.277 -0.012,0 -0.012,0 -0.024,0 -1.777,-0.012 -3.501,-0.876 -5.145,-2.447 v -4.385 c 0,-0.84 -0.664,-1.522 -1.504,-1.522 -0.846,0 -1.516,0.683 -1.516,1.522 v 4.396 c -1.645,1.547 -3.343,2.411 -5.109,2.436 -0.012,0 -0.024,0 -0.048,0 -3.021,0 -5.334,-2.259 -5.346,-2.289 -0.597,-0.572 -1.547,-0.579 -2.144,0.012 -0.597,0.591 -0.603,1.534 -0.012,2.138 0.134,0.128 3.191,3.179 7.502,3.179 0.012,0 0.024,0 0.037,0 1.802,-0.013 3.495,-0.719 5.121,-1.754 v 5.535 c -1.645,1.553 -3.343,2.423 -5.109,2.448 -0.012,0 -0.036,0 -0.061,0 -3.008,0 -5.328,-2.248 -5.334,-2.277 -0.597,-0.573 -1.547,-0.585 -2.144,0.012 -0.597,0.578 -0.603,1.534 -0.012,2.131 0.134,0.135 3.191,3.16 7.49,3.16 0.024,0 0.037,0 0.049,0 1.802,-0.006 3.495,-0.706 5.121,-1.741 v 6.771 c -1.645,1.546 -3.343,2.429 -5.109,2.436 -0.012,0 -0.036,0 -0.061,0 -3.008,0 -5.328,-2.235 -5.334,-2.277 -0.597,-0.572 -1.547,-0.579 -2.144,0.012 -0.597,0.591 -0.603,1.534 -0.012,2.138 0.134,0.128 3.191,3.179 7.49,3.179 0.024,0 0.037,0 0.049,0 1.802,-0.013 3.495,-0.731 5.121,-1.767 v 2.454 c 0,0.841 0.669,1.511 1.516,1.511 0.841,0 1.51,-0.67 1.51,-1.511 v -2.466 c 1.644,1.047 3.325,1.766 5.127,1.778 0.012,0 0.036,0 0.049,0 4.299,0 7.367,-3.045 7.489,-3.179 0.591,-0.604 0.585,-1.547 -0.012,-2.149 -0.604,-0.591 -1.56,-0.579 -2.144,0.012 -0.019,0.03 -2.339,2.266 -5.334,2.266 -0.013,0 -0.024,0 -0.037,0 -1.777,0 -3.501,-0.877 -5.139,-2.448 v -6.771 c 1.644,1.035 3.325,1.748 5.127,1.76 0.012,0 0.036,0 0.049,0 4.293,0 7.367,-3.025 7.489,-3.166 0.591,-0.597 0.585,-1.553 -0.012,-2.131 -0.597,-0.597 -1.547,-0.585 -2.144,-0.012 -0.019,0.029 -2.326,2.277 -5.334,2.277 -0.024,0 -0.049,0 -0.049,0 -1.778,-0.025 -3.489,-0.896 -5.127,-2.455 v -5.541 c 1.628,1.032 3.315,1.751 5.129,1.764 z m -6.631,27.011 c -1.553,0 -2.801,1.242 -2.801,2.783 0,1.559 1.249,2.801 2.801,2.801 1.535,0 2.765,-1.242 2.765,-2.801 0,-1.523 -1.23,-2.783 -2.765,-2.783 z M 41.734,92.456 c -21.19,1.771 -23.242,20.514 -23.248,20.697 -0.085,0.84 0.53,1.57 1.358,1.662 0.048,0 0.097,0 0.14,0 0.767,0 1.431,-0.591 1.51,-1.357 0.073,-0.677 1.863,-16.429 20.496,-17.988 0.828,-0.076 1.449,-0.794 1.395,-1.641 -0.079,-0.792 -0.73,-1.397 -1.51,-1.397 -0.043,0.018 -0.092,0.024 -0.141,0.024 z m 130.157,21.482 c 0.061,0.791 0.718,1.412 1.504,1.412 0.042,0 0.066,-0.012 0.115,-0.012 0.841,-0.061 1.449,-0.785 1.407,-1.619 C 173.37,92.501 154.628,90.3 154.438,90.276 c -0.761,0.048 -1.564,0.523 -1.662,1.352 -0.104,0.828 0.518,1.583 1.346,1.671 0.651,0.061 16.392,1.988 17.769,20.639 z"
         id="path2"
         style="stroke:#27ae60;stroke-opacity:1;fill:none" />
    </g>
    <flowRoot
       xml:space="preserve"
       id="flowRoot5159"
       style="font-style:normal;font-weight:normal;font-size:40px;line-height:125%;font-family:sans-serif;letter-spacing:0px;word-spacing:0px;fill:#000000;fill-opacity:1;stroke:none;stroke-width:1px;stroke-linecap:butt;stroke-linejoin:miter;stroke-opacity:1"
       transform="matrix(0.26458333,0,0,0.26458333,-25.914102,-14.639447)"><flowRegion
         id="flowRegion5161"><rect
           id="rect5163"
           width="228.0125"
           height="45.362236"
           x="277.36661"
           y="387.12863" /></flowRegion><flowPara
         id="flowPara5165"
         style="font-style:normal;font-variant:normal;font-weight:bold;font-stretch:normal;line-height:81.99999928%;font-family:'Avenir Next';-inkscape-font-specification:'Avenir Next';text-align:center;letter-spacing:0px;word-spacing:0px;text-anchor:middle;fill:#2980b9;fill-opacity:1">Benno's</flowPara><flowPara
         id="flowPara5167"
         style="font-style:normal;font-variant:normal;font-weight:normal;font-stretch:normal;font-size:26.66666794px;line-height:81.99999928%;font-family:'Avenir Next';-inkscape-font-specification:'Avenir Next';text-align:center;letter-spacing:0px;word-spacing:-3px;text-anchor:middle;fill:#2980b9;fill-opacity:1" /></flowRoot>    <text
       xml:space="preserve"
       style="font-style:normal;font-weight:normal;font-size:10.58333302px;line-height:125%;font-family:sans-serif;letter-spacing:0px;word-spacing:0px;fill:#000000;fill-opacity:1;stroke:none;stroke-width:0.26458332px;stroke-linecap:butt;stroke-linejoin:miter;stroke-opacity:1"
       x="71.059708"
       y="106.34615"
       id="text5204"><tspan
         sodipodi:role="line"
         id="tspan5202"
         x="71.059708"
         y="115.70992"
         style="stroke-width:0.26458332px"></tspan></text>
    <flowRoot
       xml:space="preserve"
       id="flowRoot5222"
       style="font-style:normal;font-weight:normal;font-size:40px;line-height:125%;font-family:sans-serif;letter-spacing:0px;word-spacing:0px;fill:#000000;fill-opacity:1;stroke:none;stroke-width:1px;stroke-linecap:butt;stroke-linejoin:miter;stroke-opacity:1"
       transform="matrix(0.26458333,0,0,0.26458333,47.4362,39.353441)"><flowRegion
         id="flowRegion5224"><rect
           id="rect5226"
           width="227.14285"
           height="55.357143"
           x="1.0714285"
           y="218.55794" /></flowRegion><flowPara
         id="flowPara5228"
         style="font-size:24.0000003px;-inkscape-font-specification:'Avenir Next';font-family:'Avenir Next';font-weight:normal;font-style:normal;font-stretch:normal;font-variant:normal;text-anchor:middle;text-align:center;fill:#2980b9;fill-opacity:1">Sportschool</flowPara></flowRoot>  </g>
</svg>
